<svg 
 xmlns="http://www.w3.org/2000/svg"
 xmlns:xlink="http://www.w3.org/1999/xlink"
 width="1543px" height="316px">
<path fill-rule="evenodd"  fill="rgb(87, 81, 83)"
 d="M1542.594,256.874 L1542.594,315.374 L1298.694,315.374 L1298.694,0.374 L1536.744,0.374 L1536.744,58.874 L1371.144,58.874 L1371.144,127.274 L1517.394,127.274 L1517.394,183.974 L1371.144,183.974 L1371.144,256.874 L1542.594,256.874 ZM769.444,315.374 L633.544,0.374 L712.294,0.374 L808.144,225.374 L905.344,0.374 L977.794,0.374 L841.444,315.374 L769.444,315.374 ZM249.644,247.874 L103.394,247.874 L75.494,315.374 L0.794,315.374 L141.194,0.374 L213.194,0.374 L354.044,315.374 L277.544,315.374 L249.644,247.874 ZM176.744,71.924 L126.794,192.524 L226.694,192.524 L176.744,71.924 Z"/>
</svg>