<svg 
 xmlns="http://www.w3.org/2000/svg"
 xmlns:xlink="http://www.w3.org/1999/xlink"
 width="238px" height="18px">
<path fill-rule="evenodd"  fill="rgb(34, 34, 34)"
 d="M235.600,17.000 L225.520,4.472 L225.520,17.000 L223.120,17.000 L223.120,0.200 L225.088,0.200 L235.168,12.728 L235.168,0.200 L237.568,0.200 L237.568,17.000 L235.600,17.000 ZM214.064,16.076 C212.704,16.820 211.184,17.192 209.504,17.192 C207.808,17.192 206.280,16.820 204.920,16.076 C203.560,15.332 202.492,14.304 201.716,12.992 C200.940,11.680 200.552,10.216 200.552,8.600 C200.552,6.984 200.940,5.520 201.716,4.208 C202.492,2.896 203.560,1.868 204.920,1.124 C206.280,0.380 207.808,0.008 209.504,0.008 C211.184,0.008 212.704,0.380 214.064,1.124 C215.424,1.868 216.488,2.892 217.256,4.196 C218.024,5.500 218.408,6.968 218.408,8.600 C218.408,10.232 218.024,11.700 217.256,13.004 C216.488,14.308 215.424,15.332 214.064,16.076 ZM215.156,5.300 C214.588,4.316 213.812,3.544 212.828,2.984 C211.844,2.424 210.736,2.144 209.504,2.144 C208.272,2.144 207.156,2.424 206.156,2.984 C205.156,3.544 204.372,4.316 203.804,5.300 C203.236,6.284 202.952,7.384 202.952,8.600 C202.952,9.816 203.236,10.916 203.804,11.900 C204.372,12.884 205.156,13.656 206.156,14.216 C207.156,14.776 208.272,15.056 209.504,15.056 C210.736,15.056 211.844,14.776 212.828,14.216 C213.812,13.656 214.588,12.884 215.156,11.900 C215.724,10.916 216.008,9.816 216.008,8.600 C216.008,7.384 215.724,6.284 215.156,5.300 ZM193.720,0.200 L196.120,0.200 L196.120,17.000 L193.720,17.000 L193.720,0.200 ZM185.568,9.512 L175.920,9.512 L175.920,17.000 L173.520,17.000 L173.520,0.200 L175.920,0.200 L175.920,7.424 L185.568,7.424 L185.568,0.200 L187.968,0.200 L187.968,17.000 L185.568,17.000 L185.568,9.512 ZM160.548,6.956 C161.116,7.156 161.888,7.368 162.864,7.592 C164.128,7.896 165.144,8.200 165.912,8.504 C166.680,8.808 167.340,9.272 167.892,9.896 C168.444,10.520 168.720,11.360 168.720,12.416 C168.720,13.296 168.480,14.100 168.000,14.828 C167.520,15.556 166.792,16.132 165.816,16.556 C164.840,16.980 163.640,17.192 162.216,17.192 C160.952,17.192 159.732,16.996 158.556,16.604 C157.380,16.212 156.456,15.704 155.784,15.080 L156.672,13.208 C157.312,13.784 158.132,14.252 159.132,14.612 C160.132,14.972 161.160,15.152 162.216,15.152 C163.608,15.152 164.648,14.916 165.336,14.444 C166.024,13.972 166.368,13.344 166.368,12.560 C166.368,11.984 166.180,11.516 165.804,11.156 C165.428,10.796 164.964,10.520 164.412,10.328 C163.860,10.136 163.080,9.920 162.072,9.680 C160.808,9.376 159.788,9.072 159.012,8.768 C158.236,8.464 157.572,7.996 157.020,7.364 C156.468,6.732 156.192,5.880 156.192,4.808 C156.192,3.912 156.428,3.104 156.900,2.384 C157.372,1.664 158.088,1.088 159.048,0.656 C160.008,0.224 161.200,0.008 162.624,0.008 C163.616,0.008 164.592,0.136 165.552,0.392 C166.512,0.648 167.336,1.016 168.024,1.496 L167.232,3.416 C166.528,2.968 165.776,2.628 164.976,2.396 C164.176,2.164 163.392,2.048 162.624,2.048 C161.264,2.048 160.244,2.296 159.564,2.792 C158.884,3.288 158.544,3.928 158.544,4.712 C158.544,5.288 158.736,5.756 159.120,6.116 C159.504,6.476 159.980,6.756 160.548,6.956 ZM148.824,12.800 L139.896,12.800 L138.048,17.000 L135.576,17.000 L143.184,0.200 L145.560,0.200 L153.192,17.000 L150.672,17.000 L148.824,12.800 ZM144.360,2.648 L140.736,10.880 L147.984,10.880 L144.360,2.648 ZM125.320,8.144 L133.744,8.144 L133.744,10.208 L125.320,10.208 L125.320,17.000 L122.920,17.000 L122.920,0.200 L134.776,0.200 L134.776,2.288 L125.320,2.288 L125.320,8.144 ZM97.992,0.200 L110.688,0.200 L110.688,3.320 L101.856,3.320 L101.856,6.968 L109.656,6.968 L109.656,9.992 L101.856,9.992 L101.856,13.880 L111.000,13.880 L111.000,17.000 L97.992,17.000 L97.992,0.200 ZM85.256,17.288 C82.856,17.288 80.988,16.624 79.652,15.296 C78.316,13.968 77.648,12.072 77.648,9.608 L77.648,0.200 L81.536,0.200 L81.536,9.464 C81.536,12.472 82.784,13.976 85.280,13.976 C86.496,13.976 87.424,13.612 88.064,12.884 C88.704,12.156 89.024,11.016 89.024,9.464 L89.024,0.200 L92.864,0.200 L92.864,9.608 C92.864,12.072 92.196,13.968 90.860,15.296 C89.524,16.624 87.656,17.288 85.256,17.288 ZM61.432,6.800 L61.432,17.000 L57.592,17.000 L57.592,0.200 L60.808,0.200 L69.160,10.400 L69.160,0.200 L73.000,0.200 L73.000,17.000 L69.808,17.000 L61.432,6.800 ZM40.392,0.200 L53.088,0.200 L53.088,3.320 L44.256,3.320 L44.256,6.968 L52.056,6.968 L52.056,9.992 L44.256,9.992 L44.256,13.880 L53.400,13.880 L53.400,17.000 L40.392,17.000 L40.392,0.200 ZM26.232,17.000 L18.984,0.200 L23.184,0.200 L28.296,12.200 L33.480,0.200 L37.344,0.200 L30.072,17.000 L26.232,17.000 ZM15.544,17.000 L14.056,13.400 L6.256,13.400 L4.768,17.000 L0.784,17.000 L8.272,0.200 L12.112,0.200 L19.624,17.000 L15.544,17.000 ZM10.168,4.016 L7.504,10.448 L12.832,10.448 L10.168,4.016 Z"/>
</svg>