<?xml version="1.0" standalone="no"?>
<!DOCTYPE svg PUBLIC "-//W3C//DTD SVG 20010904//EN"
 "http://www.w3.org/TR/2001/REC-SVG-20010904/DTD/svg10.dtd">
<svg version="1.0" xmlns="http://www.w3.org/2000/svg"
 width="700.000000pt" height="700.000000pt" viewBox="0 0 700.000000 700.000000"
 preserveAspectRatio="xMidYMid meet">
<metadata>
Created by potrace 1.11, written by Peter Selinger 2001-2013
</metadata>
<g transform="translate(0.000000,700.000000) scale(0.100000,-0.100000)"
fill="#000000" stroke="none">
<path d="M3288 6744 c-2 -1 -39 -5 -83 -8 -44 -3 -89 -8 -100 -10 -17 -3 -87
-13 -150 -22 -142 -18 -585 -141 -630 -174 -5 -4 -21 -11 -35 -15 -67 -19
-333 -150 -465 -230 -113 -68 -250 -164 -368 -258 -92 -73 -336 -308 -413
-397 -106 -123 -304 -397 -304 -420 0 -5 -4 -10 -10 -10 -5 0 -10 -4 -10 -9 0
-5 -18 -39 -40 -75 -124 -203 -286 -611 -339 -851 -30 -133 -51 -244 -57 -299
-3 -28 -7 -57 -9 -64 -19 -57 -27 -567 -11 -702 20 -182 25 -214 53 -350 105
-523 336 -1004 682 -1425 315 -382 765 -719 1211 -907 132 -56 143 -60 155
-63 6 -2 35 -12 65 -23 193 -71 464 -134 670 -157 179 -20 236 -22 440 -19
221 3 280 6 357 18 21 3 61 9 88 12 56 7 79 11 103 18 9 3 34 7 56 11 97 14
419 107 521 150 17 7 66 27 110 46 227 94 567 295 730 430 132 110 189 162
300 273 156 157 171 174 275 311 224 295 387 601 503 945 27 80 71 236 81 285
4 17 8 39 10 50 3 11 9 40 14 65 6 25 13 63 16 85 3 22 8 51 11 65 2 14 6 45
9 70 3 25 9 72 13 105 9 78 9 519 0 610 -11 97 -17 147 -22 165 -2 8 -6 38
-10 65 -3 28 -11 70 -16 95 -6 25 -13 56 -15 70 -3 14 -14 61 -25 105 -116
456 -340 896 -647 1269 -103 125 -336 356 -458 452 -246 196 -555 381 -794
474 -30 12 -66 27 -80 33 -14 5 -29 11 -35 13 -5 2 -57 19 -115 39 -107 37
-337 96 -445 114 -114 19 -140 23 -265 35 -107 11 -513 19 -522 10z"/>
</g>
</svg>
